<svg xmlns="http://www.w3.org/2000/svg" version="1.1" xmlns:xlink="http://www.w3.org/1999/xlink" xmlns:svgjs="http://svgjs.dev/svgjs" width="1000" height="1000" viewBox="0 0 1000 1000"><g transform="matrix(1,0,0,1,-0.14221556886212738,-0.14221556886229791)"><svg viewBox="0 0 334 334" data-background-color="#ffffff" preserveAspectRatio="xMidYMid meet" height="1000" width="1000" xmlns="http://www.w3.org/2000/svg" xmlns:xlink="http://www.w3.org/1999/xlink"><g id="tight-bounds" transform="matrix(1,0,0,1,0.04749999999998522,0.04750000000001364)"><svg viewBox="0 0 333.90454557049503 333.90454557049503" height="333.90454557049503" width="333.90454557049503"><g><svg></svg></g><g><svg viewBox="0 0 333.90454557049503 333.90454557049503" height="333.90454557049503" width="333.90454557049503"><g><path d="M0 166.952c0-92.205 74.747-166.952 166.952-166.952 92.205 0 166.952 74.747 166.953 166.952 0 92.205-74.747 166.952-166.953 166.953-92.205 0-166.952-74.747-166.952-166.953zM166.952 316.63c82.665 0 149.677-67.013 149.678-149.678 0-82.665-67.013-149.677-149.678-149.677-82.665 0-149.677 67.013-149.677 149.677 0 82.665 67.013 149.677 149.677 149.678z" data-fill-palette-color="tertiary" fill="#333333" stroke="transparent"></path><ellipse rx="160.27418187383762" ry="160.27418187383762" cx="166.95227278524752" cy="166.95227278524752" fill="#FAF2E8" stroke="transparent" stroke-width="0" fill-opacity="1" data-fill-palette-color="tertiary"></ellipse></g><g transform="matrix(1,0,0,1,80.0954647392568,71.17305217166896)"><svg viewBox="0 0 173.71361609198144 191.55844122715712" height="191.55844122715712" width="173.71361609198144"><g><svg viewBox="0 0 173.71361609198144 191.55844122715712" height="191.55844122715712" width="173.71361609198144"><g><svg viewBox="0 0 173.71361609198144 191.55844122715712" height="191.55844122715712" width="173.71361609198144"><g><svg viewBox="0 0 173.71361609198144 191.55844122715712" height="191.55844122715712" width="173.71361609198144"><g id="textblocktransform"><svg viewBox="0 0 173.71361609198144 191.55844122715712" height="191.55844122715712" width="173.71361609198144" id="textblock"><g><svg viewBox="0 0 173.71361609198144 191.55844122715712" height="191.55844122715712" width="173.71361609198144"><g transform="matrix(1,0,0,1,0,0)"><svg width="173.71361609198144" viewBox="3.55 -35.10190969443001 32.25 35.56288530418611" height="191.55844122715712" data-palette-color="#333333"><path d="M22.55-18.3Q21.35-18.2 20.8-18.2L20.8-18.2Q17.1-17.95 15.1-17.65L15.1-17.65Q14-17.45 12.4-14.95L12.4-14.95Q11.05-12.85 10.55-8.3L10.55-8.3 10-6.5Q9.75-5.6 9.25-4.95L9.25-4.95Q8.95-4.6 8.47-4.38 8-4.15 7.5-4.15L7.5-4.15Q7.75-4.15 7.3-4.7L7.3-4.7Q6.3-6.05 5.83-6.88 5.35-7.7 5.35-8.75L5.35-8.75Q5.35-9.2 5.5-9.8L5.5-9.8Q5.75-10.55 5.8-11.3L5.8-11.3Q5.9-11.6 6-12.18 6.1-12.75 6.25-13.15L6.25-13.15Q6.4-13.6 6.4-14L6.4-14Q6.4-15.1 5.25-16.1L5.25-16.1Q3.55-17.55 3.55-18.75L3.55-18.75Q3.55-20.15 5.75-21.35L5.75-21.35Q5.95-21.45 6.33-21.7 6.7-21.95 7-22L7-22Q8.05-22.25 8.53-22.95 9-23.65 9.35-24.9L9.35-24.9Q10.3-28.2 11.45-32L11.45-32 12-33.8Q12.1-34.15 12.55-35.1L12.55-35.1Q14.75-35.15 15.68-33.9 16.6-32.65 16.6-30.65L16.6-30.65Q16.6-30.35 16.5-29.75L16.5-29.75 16.05-27.75 15.75-26.65 15.25-24 17.9-23.8 24.25-23.25 25.95-28.5 26.35-30.2Q27.8-32.1 28.9-31.1L28.9-31.1Q29.95-30.15 30.73-28.98 31.5-27.8 31.5-26.3L31.5-26.3Q31.5-24.85 30.65-22.6L30.65-22.6Q31.05-22.35 31.6-22.18 32.15-22 32.35-21.95L32.35-21.95Q33.9-21.5 34.75-20.9 35.6-20.3 35.8-18.75L35.8-18.75Q35.2-17.8 34.2-17.5 33.2-17.2 31.85-17.35L31.85-17.35Q31.35-17.4 30.55-17.4L30.55-17.4Q29.45-17.4 29.1-16.95 28.75-16.5 28.25-14.85L28.25-14.85 27.65-12.9Q26.45-9 25.93-6.65 25.4-4.3 25.2-1.75L25.2-1.75Q25.2-1.55 25.18-0.93 25.15-0.3 24.85 0.08 24.55 0.45 23.9 0.45L23.9 0.45Q22.25 0.6 21.9-1.3L21.9-1.3Q20.7-3.95 20.7-6.4L20.7-6.4Q20.7-7.45 20.8-8L20.8-8Q21.35-11.2 22.25-16.15L22.25-16.15 22.55-18.3Z" opacity="1" transform="matrix(1,0,0,1,0,0)" fill="#333333" class="undefined-text-0" data-fill-palette-color="quaternary" id="text-0"></path></svg></g></svg></g></svg></g></svg></g></svg></g></svg></g></svg></g></svg></g><defs></defs></svg><rect width="333.90454557049503" height="333.90454557049503" fill="none" stroke="none" visibility="hidden"></rect></g></svg></g></svg>